<?xml version="1.0" standalone="no"?><!DOCTYPE svg PUBLIC "-//W3C//DTD SVG 1.1//EN" "http://www.w3.org/Graphics/SVG/1.1/DTD/svg11.dtd"><svg t="1703864211378" class="icon" viewBox="0 0 4020 1024" version="1.1" xmlns="http://www.w3.org/2000/svg" p-id="7089" xmlns:xlink="http://www.w3.org/1999/xlink" width="94.21875" height="24"><path d="M1080.64237 231.860148l6.731852 0.075852h278.053926l7.073185 0.037926c123.960889 1.327407 187.240296 37.69837 189.81926 109.112889l-150.376297 339.892148-51.465481 112.260741-53.43763 115.389629-2.939259 6.144c-35.612444 72.817778-88.746667 109.226667-159.345778 109.226667H590.639407l51.446519-102.912h421.546667l6.030222-0.341333c45.776593-3.318519 80.042667-21.921185 102.798222-55.789037l31.668148-68.589037-299.804444 1.554963-6.769778-0.037926c-102.362074-1.137778-153.543111-28.690963-153.543111-82.602667 0-10.391704 2.313481-22.33837 6.921481-35.858963l158.340741-347.704889 1.744593-4.835555c24.841481-65.327407 83.626667-96.976593 176.355555-94.947556z m1358.127408 405.731556l-74.714074 173.89037h-172.980148l74.714074-173.89037h172.980148zM472.538074 0l-99.062518 224.995556h248.661333l7.092148 0.037925c124.09363 1.327407 187.448889 37.755259 190.046815 109.321482l-150.565926 343.74163-2.029037 4.797629c-31.687111 72.836741-108.619852 109.264593-230.779259 109.264593H160.464593l-6.750815-0.037926C51.237926 790.945185 0 763.373037 0 709.347556c0-10.42963 2.313481-22.395259 6.940444-35.934815l158.492445-348.425482L314.04563 0h158.492444z m1652.811852 231.841185l7.149037 0.037926c125.345185 1.327407 189.326222 37.413926 191.943111 108.316445l-152.082963 340.517925-48.014222 111.445334h-172.088889l190.103704-414.814815-0.474074-3.451259c-3.621926-22.471111-18.147556-33.697185-43.557926-33.697185h-38.020741l-29.999407 65.005037-172.088889 386.958222h-148.081778l178.100148-386.958222 30.01837-65.005037h-92.046222l-18.014815 37.148444L1680.118519 649.746963l-66.048 142.411852H1448.011852l56.035555-116.091259 160.066371-345.163852 46.023111-99.062519h415.213037z m833.327407-173.89037l-94.359703 208.952889h469.921185l-45.283556 101.565629h-466.147555l-20.764445 34.816-120.794074 255.374223 0.246519 3.072c2.351407 22.016 17.92 32.673185 46.705777 31.933629l4.020149-0.189629h158.53037l-64.170667 98.683259H2658.607407l-6.011259-0.056889c-93.297778-1.422222-139.150222-36.181333-137.576296-104.296296l0.170667-4.47526 150.964148-323.565037 141.558518-301.795555h150.964148z m614.968889 212.536889l-42.097778 354.493629 342.20563-354.493629H4020.148148l-486.779259 521.671111h-161.014519l43.918223-521.671111h157.373629zM585.197037 347.780741H379.316148l-5.537185 0.094815c-32.900741 1.175704-58.102519 12.913778-75.605333 35.252148l-126.691556 259.223703 0.265482 2.74963c2.635852 19.77837 20.347259 29.658074 53.172148 29.658074l223.687111 1.460148c21.124741-2.939259 38.267259-14.222222 51.465481-33.867852l128.663704-259.223703-0.455111-3.299556c-3.602963-21.371259-17.957926-32.047407-43.083852-32.047407z m743.063704 0H1122.379852l-5.556148 0.094815c-32.900741 1.175704-58.102519 12.913778-75.605334 35.252148l-126.672592 259.223703 0.246518 2.74963c2.654815 19.77837 20.366222 29.658074 53.191111 29.658074l223.687112 1.460148 49.493333-1.460148 130.654815-291.65037-0.474074-3.280593c-3.602963-21.371259-17.957926-32.047407-43.083852-32.047407z" fill="currentColor" p-id="7090"></path></svg>